<svg width="433" height="321" viewBox="0 0 433 321" fill="none" xmlns="http://www.w3.org/2000/svg">
<path d="M245.744 284V217.44H252.016V284H245.744ZM248.944 201.696C247.152 201.696 245.701 201.141 244.592 200.032C243.483 198.923 242.928 197.515 242.928 195.808C242.928 194.016 243.483 192.565 244.592 191.456C245.701 190.347 247.152 189.792 248.944 189.792C250.651 189.792 252.059 190.347 253.168 191.456C254.277 192.565 254.832 194.016 254.832 195.808C254.832 197.515 254.277 198.923 253.168 200.032C252.059 201.141 250.651 201.696 248.944 201.696Z" fill="#C1C1C1"/>
<path d="M72.272 285.28C62.544 285.28 54.096 283.317 46.928 279.392C39.8453 275.467 34.3413 269.92 30.416 262.752C26.4907 255.499 24.528 247.008 24.528 237.28C24.528 227.552 26.4907 219.104 30.416 211.936C34.3413 204.683 39.8453 199.093 46.928 195.168C54.096 191.243 62.544 189.28 72.272 189.28C83.4507 189.28 93.4347 191.968 102.224 197.344L100.048 202.976C91.6853 197.771 82.4693 195.168 72.4 195.168C64.0373 195.168 56.7413 196.917 50.512 200.416C44.2827 203.829 39.4613 208.693 36.048 215.008C32.72 221.237 31.056 228.661 31.056 237.28C31.056 245.813 32.72 253.237 36.048 259.552C39.4613 265.867 44.2827 270.773 50.512 274.272C56.7413 277.685 64.0373 279.392 72.4 279.392C82.384 279.392 91.6 276.789 100.048 271.584L102.224 277.216C93.4347 282.592 83.4507 285.28 72.272 285.28Z" fill="#C1C1C1"/>
<path d="M61.32 164.4C49.56 164.4 39.4333 162.347 30.94 158.24C22.54 154.04 16.0533 148.02 11.48 140.18C7 132.34 4.76 122.913 4.76 111.9C4.76 100.887 6.95333 91.5067 11.34 83.76C15.82 75.92 22.1667 69.9 30.38 65.7C38.6867 61.5 48.58 59.4 60.06 59.4C66.4067 59.4 72.3333 60.0533 77.84 61.36C83.44 62.6667 88.48 64.6733 92.96 67.38L87.78 86.7C84.14 84.46 79.8 82.6867 74.76 81.38C69.8133 80.0733 64.9133 79.42 60.06 79.42C53.62 79.42 48.16 80.68 43.68 83.2C39.2 85.72 35.7933 89.4067 33.46 94.26C31.1267 99.02 29.96 104.9 29.96 111.9C29.96 118.993 31.1267 124.967 33.46 129.82C35.8867 134.58 39.4333 138.22 44.1 140.74C48.7667 143.167 54.5067 144.38 61.32 144.38C64.5867 144.38 67.5733 144.1 70.28 143.54C73.08 142.887 75.74 141.907 78.26 140.6L75.32 146.62V121.56H48.86V101.68H99.12V156.14C93.9867 158.753 88.1067 160.807 81.48 162.3C74.9467 163.7 68.2267 164.4 61.32 164.4ZM115.868 163V90.2H138.268L138.408 103.22H138.688C141.394 100.14 144.381 97.5267 147.648 95.38C150.914 93.14 154.414 91.5067 158.148 90.48C161.974 89.36 165.894 88.8 169.908 88.8V108.12C164.308 108.12 159.174 109.147 154.508 111.2C149.934 113.253 146.248 116.007 143.448 119.46C140.741 122.82 139.388 126.6 139.388 130.8V163H115.868ZM197.765 164.4C190.765 164.4 185.212 162.393 181.105 158.38C176.999 154.367 174.945 148.953 174.945 142.14C174.945 133.927 178.165 127.58 184.605 123.1C191.139 118.62 200.332 116.38 212.185 116.38H220.725C220.725 112.553 219.699 109.893 217.645 108.4C215.685 106.813 212.232 106.02 207.285 106.02C202.805 106.02 198.325 106.58 193.845 107.7C189.459 108.82 185.072 110.5 180.685 112.74L178.025 95.38C182.972 93.14 188.012 91.5067 193.145 90.48C198.372 89.36 204.159 88.8 210.505 88.8C218.719 88.8 225.252 89.7333 230.105 91.6C235.052 93.3733 238.599 96.36 240.745 100.56C242.892 104.667 243.965 110.127 243.965 116.94V163H221.845L221.565 154.6H221.285C218.672 157.587 215.219 159.967 210.925 161.74C206.725 163.513 202.339 164.4 197.765 164.4ZM206.585 147.74C209.292 147.74 211.719 147.273 213.865 146.34C216.012 145.407 217.692 144.147 218.905 142.56C220.119 140.88 220.725 139.013 220.725 136.96V130.1H215.685C209.152 130.1 204.299 130.893 201.125 132.48C197.952 133.973 196.365 136.4 196.365 139.76C196.365 142.28 197.252 144.24 199.025 145.64C200.799 147.04 203.319 147.74 206.585 147.74ZM259.696 163V90.2H281.816L282.096 100H282.376C285.642 95.9867 289.142 93.14 292.876 91.46C296.609 89.6867 301.042 88.8 306.176 88.8C314.949 88.8 321.296 91.32 325.216 96.36C329.136 101.4 331.096 109.613 331.096 121V163H307.716V125.62C307.716 119.46 306.876 114.98 305.196 112.18C303.609 109.38 300.996 107.98 297.356 107.98C294.649 107.98 292.222 108.633 290.076 109.94C287.929 111.247 286.202 113.02 284.896 115.26C283.589 117.407 282.936 119.787 282.936 122.4V163H259.696ZM376.189 193.8C370.122 193.8 364.569 193.147 359.529 191.84C354.582 190.533 350.289 188.62 346.649 186.1L350.009 169.02C353.555 171.447 357.335 173.313 361.349 174.62C365.455 175.927 369.655 176.58 373.949 176.58C381.135 176.58 386.362 174.76 389.629 171.12C392.895 167.48 394.529 161.74 394.529 153.9V150.82H394.249C391.075 154.087 387.715 156.467 384.169 157.96C380.715 159.453 376.702 160.2 372.129 160.2C362.609 160.2 355.235 157.12 350.009 150.96C344.875 144.8 342.309 135.98 342.309 124.5C342.309 113.02 344.875 104.2 350.009 98.04C355.235 91.88 362.609 88.8 372.129 88.8C376.702 88.8 380.902 89.5933 384.729 91.18C388.555 92.6733 392.055 95.0067 395.229 98.18H395.509L395.789 90.2H417.909V153.9C417.909 167.06 414.362 177 407.269 183.72C400.269 190.44 389.909 193.8 376.189 193.8ZM379.969 142C382.862 142 385.382 141.487 387.529 140.46C389.675 139.433 391.355 138.033 392.569 136.26C393.875 134.393 394.529 132.34 394.529 130.1V118.9C394.529 116.567 393.875 114.513 392.569 112.74C391.355 110.967 389.675 109.567 387.529 108.54C385.382 107.513 382.862 107 379.969 107C375.302 107 371.662 108.54 369.049 111.62C366.529 114.607 365.269 118.9 365.269 124.5C365.269 130.1 366.529 134.44 369.049 137.52C371.662 140.507 375.302 142 379.969 142Z" fill="black"/>
<path d="M206.048 285.28C197.259 285.28 190.347 282.251 185.312 276.192C180.363 270.048 177.888 261.557 177.888 250.72C177.888 239.797 180.363 231.307 185.312 225.248C190.347 219.189 197.259 216.16 206.048 216.16C211.253 216.16 216.032 217.184 220.384 219.232C224.821 221.28 228.107 224.053 230.24 227.552H230.496V190.56H236.768V284H230.752V273.888H230.496C228.277 277.301 224.949 280.075 220.512 282.208C216.075 284.256 211.253 285.28 206.048 285.28ZM207.2 279.776C211.723 279.776 215.733 278.837 219.232 276.96C222.731 275.083 225.461 272.523 227.424 269.28C229.472 265.952 230.496 262.155 230.496 257.888V243.552C230.496 239.285 229.472 235.531 227.424 232.288C225.461 228.96 222.731 226.357 219.232 224.48C215.733 222.603 211.723 221.664 207.2 221.664C199.947 221.664 194.272 224.181 190.176 229.216C186.165 234.251 184.16 241.419 184.16 250.72C184.16 260.021 186.165 267.189 190.176 272.224C194.272 277.259 199.947 279.776 207.2 279.776Z" fill="#C1C1C1"/>
<path d="M139.504 285.28C133.104 285.28 127.515 283.872 122.736 281.056C118.043 278.24 114.373 274.229 111.728 269.024C109.168 263.819 107.888 257.717 107.888 250.72C107.888 243.637 109.168 237.536 111.728 232.416C114.373 227.211 118.043 223.2 122.736 220.384C127.515 217.568 133.104 216.16 139.504 216.16C145.989 216.16 151.579 217.568 156.272 220.384C160.965 223.2 164.592 227.211 167.152 232.416C169.797 237.536 171.12 243.637 171.12 250.72C171.12 257.717 169.797 263.819 167.152 269.024C164.592 274.229 160.965 278.24 156.272 281.056C151.579 283.872 145.989 285.28 139.504 285.28ZM139.504 279.776C147.355 279.776 153.541 277.173 158.064 271.968C162.587 266.763 164.848 259.68 164.848 250.72C164.848 241.675 162.587 234.592 158.064 229.472C153.541 224.267 147.355 221.664 139.504 221.664C131.653 221.664 125.467 224.267 120.944 229.472C116.421 234.592 114.16 241.675 114.16 250.72C114.16 259.68 116.421 266.763 120.944 271.968C125.467 277.173 131.653 279.776 139.504 279.776Z" fill="#C1C1C1"/>
<path d="M261.776 284V217.44H268.048V228.192H268.304C270.523 224.437 273.765 221.493 278.032 219.36C282.384 217.227 287.291 216.16 292.752 216.16C300.859 216.16 306.875 218.635 310.8 223.584C314.811 228.448 316.816 235.787 316.816 245.6V284H310.416V246.496C310.416 238.133 308.837 231.904 305.68 227.808C302.608 223.712 297.872 221.664 291.472 221.664C286.864 221.664 282.768 222.688 279.184 224.736C275.685 226.699 272.955 229.429 270.992 232.928C269.029 236.427 268.048 240.523 268.048 245.216V284H261.776Z" fill="#C1C1C1"/>
<path d="M351.92 312.16C346.971 312.16 342.533 311.563 338.608 310.368C334.683 309.173 331.013 307.339 327.6 304.864L329.648 299.744C332.891 302.133 336.219 303.883 339.632 304.992C343.131 306.101 347.099 306.656 351.536 306.656C360.24 306.656 366.555 304.395 370.48 299.872C374.491 295.349 376.496 288.139 376.496 278.24V270.56H376.24C374.107 273.888 370.864 276.533 366.512 278.496C362.245 280.459 357.467 281.44 352.176 281.44C343.301 281.44 336.347 278.581 331.312 272.864C326.363 267.061 323.888 259.04 323.888 248.8C323.888 238.56 326.363 230.581 331.312 224.864C336.347 219.061 343.301 216.16 352.176 216.16C357.467 216.16 362.245 217.141 366.512 219.104C370.864 221.067 374.149 223.712 376.368 227.04H376.624V217.44H382.768V278.24C382.768 289.845 380.251 298.379 375.216 303.84C370.267 309.387 362.501 312.16 351.92 312.16ZM353.2 275.936C357.723 275.936 361.733 275.083 365.232 273.376C368.731 271.584 371.461 269.195 373.424 266.208C375.472 263.136 376.496 259.637 376.496 255.712V241.888C376.496 237.963 375.472 234.507 373.424 231.52C371.461 228.448 368.731 226.059 365.232 224.352C361.733 222.56 357.723 221.664 353.2 221.664C345.947 221.664 340.272 224.053 336.176 228.832C332.08 233.525 330.032 240.181 330.032 248.8C330.032 257.419 332.08 264.117 336.176 268.896C340.272 273.589 345.947 275.936 353.2 275.936Z" fill="#C1C1C1"/>
</svg>
